M48
; DRILL file {KiCad 7.0.1} date Tue Sep  5 22:58:48 2023
; FORMAT={-:-/ absolute / metric / decimal}
; #@! TF.CreationDate,2023-09-05T22:58:48-07:00
; #@! TF.GenerationSoftware,Kicad,Pcbnew,7.0.1
; #@! TF.FileFunction,Plated,1,4,PTH
FMAT,2
METRIC
; #@! TA.AperFunction,Plated,PTH,ViaDrill
T1C0.300
; #@! TA.AperFunction,Plated,PTH,ViaDrill
T2C0.400
; #@! TA.AperFunction,Plated,PTH,ComponentDrill
T3C1.000
; #@! TA.AperFunction,Plated,PTH,ComponentDrill
T4C1.400
; #@! TA.AperFunction,Plated,PTH,ComponentDrill
T5C1.500
; #@! TA.AperFunction,Plated,PTH,ComponentDrill
T6C1.600
; #@! TA.AperFunction,Plated,PTH,ComponentDrill
T7C2.000
%
G90
G05
T1
X1.95Y111.3
X7.55Y99.05
X11.0Y97.4
X11.2Y95.45
X11.55Y110.9
X13.85Y48.8
X14.05Y49.65
X14.15Y51.3
X14.15Y48.0
X19.15Y49.0
X19.25Y61.0
X20.05Y49.0
X20.15Y61.0
X20.55Y56.0
X20.55Y55.0
X20.55Y54.0
X20.95Y97.4
X21.3Y95.5
X21.45Y110.95
X21.55Y56.0
X21.55Y55.0
X21.55Y54.0
X21.65Y49.0
X21.75Y61.0
X22.55Y56.0
X22.55Y55.0
X22.55Y54.0
X22.55Y49.0
X22.65Y61.0
X25.6Y56.1
X29.95Y54.2
X30.9Y97.4
X31.3Y95.55
X31.45Y110.9
X31.6Y56.75
X33.3Y57.55
X33.4Y59.7
X40.8Y97.4
X41.3Y95.5
X41.5Y110.95
X50.95Y97.4
X51.3Y95.5
X51.5Y65.1
X51.55Y110.9
X52.08Y76.62
X53.58Y76.62
X54.05Y67.85
X54.25Y23.8
X54.25Y22.35
X54.9Y64.25
X55.08Y76.62
X55.45Y71.1
X55.6Y58.2
X55.75Y67.95
X55.85Y52.7
X56.3Y64.25
X56.58Y76.62
X56.65Y67.05
X56.65Y61.9
X56.8Y70.9
X58.08Y76.62
X58.3Y72.25
X59.58Y76.62
X60.4Y29.65
X60.45Y68.95
X60.45Y67.4
X60.45Y65.85
X60.45Y64.3
X60.45Y62.75
X60.85Y97.4
X61.08Y76.62
X61.1Y54.8
X61.3Y95.5
X61.45Y110.95
X61.65Y56.6
X61.9Y54.95
X62.0Y68.95
X62.0Y67.4
X62.0Y65.85
X62.0Y64.3
X62.0Y62.75
X62.3Y61.5
X62.58Y76.62
X62.58Y56.67
X63.15Y52.47
X63.55Y68.95
X63.55Y67.4
X63.55Y65.85
X63.55Y64.3
X63.55Y62.75
X64.45Y56.8
X64.48Y76.62
X65.1Y68.95
X65.1Y67.4
X65.1Y65.85
X65.1Y64.3
X65.1Y62.75
X65.98Y76.62
X66.65Y68.95
X66.65Y67.4
X66.65Y65.85
X66.65Y64.3
X66.65Y62.75
X67.48Y76.62
X68.15Y60.05
X68.6Y58.15
X68.98Y76.62
X69.35Y61.2
X70.4Y69.85
X70.45Y64.25
X70.48Y76.62
X71.0Y97.4
X71.3Y95.55
X71.45Y110.95
X71.7Y71.9
X71.98Y76.62
X72.2Y65.1
X73.25Y76.7
X73.25Y74.15
X73.25Y71.35
X74.2Y61.35
X74.2Y46.3
X79.15Y50.45
X80.95Y97.4
X81.2Y95.55
X81.6Y110.95
X83.6Y59.3
X86.13Y59.49
X86.13Y54.4
X86.13Y48.58
X86.13Y46.05
X87.2Y67.35
X87.2Y64.85
X87.3Y46.0
X87.35Y48.05
X90.85Y97.4
X91.25Y95.5
X91.5Y110.95
X100.8Y97.4
X101.25Y95.45
X101.4Y110.9
X111.0Y97.4
X111.2Y95.45
X111.55Y110.95
X121.0Y97.4
X121.3Y95.65
X121.65Y111.0
X131.0Y97.4
X131.3Y95.65
X131.55Y110.95
T2
X48.95Y66.3
X50.35Y69.45
T3
X89.25Y75.0
X89.25Y72.46
X89.25Y69.92
X89.25Y67.38
X89.25Y64.84
X89.25Y62.3
X89.25Y59.76
X89.25Y57.22
X89.25Y54.68
X89.25Y52.14
X89.25Y49.6
X89.25Y47.06
X89.25Y44.52
X89.25Y41.98
X89.25Y39.44
X89.25Y36.9
X89.25Y34.36
X89.25Y31.82
X89.25Y29.28
X89.25Y26.74
X91.79Y75.0
X91.79Y72.46
X91.79Y69.92
X91.79Y67.38
X91.79Y64.84
X91.79Y62.3
X91.79Y59.76
X91.79Y57.22
X91.79Y54.68
X91.79Y52.14
X91.79Y49.6
X91.79Y47.06
X91.79Y44.52
X91.79Y41.98
X91.79Y39.44
X91.79Y36.9
X91.79Y34.36
X91.79Y31.82
X91.79Y29.28
X91.79Y26.74
T4
X4.777Y57.04
X4.777Y51.96
X4.777Y37.5
X4.777Y29.88
X4.777Y19.81
X4.777Y12.19
T5
X4.1Y112.6
X8.9Y110.7
X14.1Y112.6
X18.9Y110.7
X24.1Y112.6
X28.9Y110.7
X34.1Y112.6
X38.9Y110.7
X44.1Y112.6
X48.9Y110.7
X54.1Y112.6
X58.9Y110.7
X64.1Y112.6
X68.9Y110.7
X74.1Y112.6
X78.9Y110.7
X84.1Y112.6
X88.9Y110.7
X94.1Y112.6
X98.9Y110.7
X104.1Y112.6
X108.9Y110.7
X114.1Y112.6
X118.9Y110.7
X124.1Y112.6
X128.9Y110.7
X134.1Y112.6
X138.9Y110.7
T6
X14.2Y32.5
X14.2Y26.15
X14.2Y19.8
X14.2Y13.45
X44.68Y32.5
X44.68Y26.15
X44.68Y19.8
X44.68Y13.45
T7
X4.1Y103.3
X14.1Y103.3
X24.1Y103.3
X34.1Y103.3
X44.1Y103.3
X54.1Y103.3
X64.1Y103.3
X74.1Y103.3
X84.1Y103.3
X94.1Y103.3
X104.1Y103.3
X114.1Y103.3
X124.1Y103.3
X134.1Y103.3
T0
M30
