M48
; DRILL file {KiCad 7.0.1} date Tue Sep  5 22:58:48 2023
; FORMAT={-:-/ absolute / metric / decimal}
; #@! TF.CreationDate,2023-09-05T22:58:48-07:00
; #@! TF.GenerationSoftware,Kicad,Pcbnew,7.0.1
; #@! TF.FileFunction,NonPlated,1,4,NPTH
FMAT,2
METRIC
; #@! TA.AperFunction,NonPlated,NPTH,ComponentDrill
T1C1.600
; #@! TA.AperFunction,NonPlated,NPTH,ComponentDrill
T2C2.700
%
G90
G05
T1
X6.5Y111.5
X6.5Y104.5
X16.5Y111.5
X16.5Y104.5
X26.5Y111.5
X26.5Y104.5
X36.5Y111.5
X36.5Y104.5
X46.5Y111.5
X46.5Y104.5
X56.5Y111.5
X56.5Y104.5
X66.5Y111.5
X66.5Y104.5
X76.5Y111.5
X76.5Y104.5
X86.5Y111.5
X86.5Y104.5
X96.5Y111.5
X96.5Y104.5
X106.5Y111.5
X106.5Y104.5
X116.5Y111.5
X116.5Y104.5
X126.5Y111.5
X126.5Y104.5
X136.5Y111.5
X136.5Y104.5
T2
X3.0Y95.0
X3.0Y3.0
X82.5Y3.0
X90.5Y80.0
X90.5Y22.0
X139.5Y80.0
X139.5Y22.0
X140.0Y95.0
T0
M30
