%TF.GenerationSoftware,KiCad,Pcbnew,7.0.1*%
%TF.CreationDate,2023-09-05T22:58:42-07:00*%
%TF.ProjectId,Power_Meter_RPi_Hat_HW,506f7765-725f-44d6-9574-65725f525069,rev?*%
%TF.SameCoordinates,PX686d660PY8f0d180*%
%TF.FileFunction,Paste,Top*%
%TF.FilePolarity,Positive*%
%FSLAX46Y46*%
G04 Gerber Fmt 4.6, Leading zero omitted, Abs format (unit mm)*
G04 Created by KiCad (PCBNEW 7.0.1) date 2023-09-05 22:58:42*
%MOMM*%
%LPD*%
G01*
G04 APERTURE LIST*
G04 Aperture macros list*
%AMRoundRect*
0 Rectangle with rounded corners*
0 $1 Rounding radius*
0 $2 $3 $4 $5 $6 $7 $8 $9 X,Y pos of 4 corners*
0 Add a 4 corners polygon primitive as box body*
4,1,4,$2,$3,$4,$5,$6,$7,$8,$9,$2,$3,0*
0 Add four circle primitives for the rounded corners*
1,1,$1+$1,$2,$3*
1,1,$1+$1,$4,$5*
1,1,$1+$1,$6,$7*
1,1,$1+$1,$8,$9*
0 Add four rect primitives between the rounded corners*
20,1,$1+$1,$2,$3,$4,$5,0*
20,1,$1+$1,$4,$5,$6,$7,0*
20,1,$1+$1,$6,$7,$8,$9,0*
20,1,$1+$1,$8,$9,$2,$3,0*%
G04 Aperture macros list end*
%ADD10RoundRect,0.200000X-0.200000X-0.275000X0.200000X-0.275000X0.200000X0.275000X-0.200000X0.275000X0*%
%ADD11RoundRect,0.218750X-0.218750X-0.381250X0.218750X-0.381250X0.218750X0.381250X-0.218750X0.381250X0*%
%ADD12R,1.700000X5.700000*%
%ADD13RoundRect,0.225000X0.225000X0.250000X-0.225000X0.250000X-0.225000X-0.250000X0.225000X-0.250000X0*%
%ADD14RoundRect,0.250000X-0.650000X0.325000X-0.650000X-0.325000X0.650000X-0.325000X0.650000X0.325000X0*%
%ADD15RoundRect,0.250000X0.650000X-0.325000X0.650000X0.325000X-0.650000X0.325000X-0.650000X-0.325000X0*%
%ADD16RoundRect,0.112500X-0.187500X-0.112500X0.187500X-0.112500X0.187500X0.112500X-0.187500X0.112500X0*%
%ADD17RoundRect,0.112500X0.187500X0.112500X-0.187500X0.112500X-0.187500X-0.112500X0.187500X-0.112500X0*%
%ADD18RoundRect,0.112500X-0.112500X0.187500X-0.112500X-0.187500X0.112500X-0.187500X0.112500X0.187500X0*%
%ADD19RoundRect,0.135000X-0.135000X-0.185000X0.135000X-0.185000X0.135000X0.185000X-0.135000X0.185000X0*%
%ADD20RoundRect,0.140000X-0.170000X0.140000X-0.170000X-0.140000X0.170000X-0.140000X0.170000X0.140000X0*%
%ADD21RoundRect,0.250000X0.475000X-0.250000X0.475000X0.250000X-0.475000X0.250000X-0.475000X-0.250000X0*%
%ADD22RoundRect,0.135000X-0.185000X0.135000X-0.185000X-0.135000X0.185000X-0.135000X0.185000X0.135000X0*%
%ADD23RoundRect,0.140000X0.170000X-0.140000X0.170000X0.140000X-0.170000X0.140000X-0.170000X-0.140000X0*%
%ADD24RoundRect,0.140000X0.140000X0.170000X-0.140000X0.170000X-0.140000X-0.170000X0.140000X-0.170000X0*%
%ADD25RoundRect,0.135000X0.185000X-0.135000X0.185000X0.135000X-0.185000X0.135000X-0.185000X-0.135000X0*%
%ADD26RoundRect,0.218750X-0.218750X-0.256250X0.218750X-0.256250X0.218750X0.256250X-0.218750X0.256250X0*%
%ADD27RoundRect,0.250000X0.250000X0.475000X-0.250000X0.475000X-0.250000X-0.475000X0.250000X-0.475000X0*%
%ADD28RoundRect,0.200000X0.300000X0.200000X-0.300000X0.200000X-0.300000X-0.200000X0.300000X-0.200000X0*%
%ADD29RoundRect,0.140000X-0.140000X-0.170000X0.140000X-0.170000X0.140000X0.170000X-0.140000X0.170000X0*%
%ADD30RoundRect,0.225000X0.250000X-0.225000X0.250000X0.225000X-0.250000X0.225000X-0.250000X-0.225000X0*%
%ADD31RoundRect,0.150000X-0.512500X-0.150000X0.512500X-0.150000X0.512500X0.150000X-0.512500X0.150000X0*%
%ADD32RoundRect,0.135000X0.135000X0.185000X-0.135000X0.185000X-0.135000X-0.185000X0.135000X-0.185000X0*%
%ADD33RoundRect,0.035000X0.662500X-0.075000X0.662500X0.075000X-0.662500X0.075000X-0.662500X-0.075000X0*%
%ADD34RoundRect,0.035000X0.075000X-0.662500X0.075000X0.662500X-0.075000X0.662500X-0.075000X-0.662500X0*%
%ADD35RoundRect,0.250000X0.275000X-0.275000X0.275000X0.275000X-0.275000X0.275000X-0.275000X-0.275000X0*%
G04 APERTURE END LIST*
D10*
%TO.C,R16*%
X11725000Y60500000D03*
X13375000Y60500000D03*
%TD*%
D11*
%TO.C,L2*%
X15125000Y60500000D03*
X17250000Y60500000D03*
%TD*%
D12*
%TO.C,L1*%
X12150000Y55250000D03*
X16650000Y55250000D03*
%TD*%
D13*
%TO.C,C66*%
X16200000Y50450000D03*
X14650000Y50450000D03*
%TD*%
%TO.C,C65*%
X16200000Y48800000D03*
X14650000Y48800000D03*
%TD*%
D14*
%TO.C,C64*%
X19650000Y52950000D03*
X19650000Y50000000D03*
%TD*%
%TO.C,C63*%
X22150000Y52950000D03*
X22150000Y50000000D03*
%TD*%
D15*
%TO.C,C62*%
X22150000Y57050000D03*
X22150000Y60000000D03*
%TD*%
%TO.C,C61*%
X19600000Y57050000D03*
X19600000Y60000000D03*
%TD*%
D16*
%TO.C,D15*%
X8350000Y95150000D03*
X10450000Y95150000D03*
%TD*%
D17*
%TO.C,D14*%
X14100000Y95550000D03*
X12000000Y95550000D03*
%TD*%
%TO.C,D13*%
X24100000Y95500000D03*
X22000000Y95500000D03*
%TD*%
%TO.C,D12*%
X34100000Y95550000D03*
X32000000Y95550000D03*
%TD*%
%TO.C,D11*%
X44100000Y95500000D03*
X42000000Y95500000D03*
%TD*%
%TO.C,D10*%
X54100000Y95500000D03*
X52000000Y95500000D03*
%TD*%
%TO.C,D9*%
X64100000Y95500000D03*
X62000000Y95500000D03*
%TD*%
D18*
%TO.C,D8*%
X60400000Y32500000D03*
X60400000Y30400000D03*
%TD*%
D17*
%TO.C,D7*%
X74100000Y95550000D03*
X72000000Y95550000D03*
%TD*%
%TO.C,D6*%
X84100000Y95550000D03*
X82000000Y95550000D03*
%TD*%
%TO.C,D5*%
X94100000Y95500000D03*
X92000000Y95500000D03*
%TD*%
%TO.C,D4*%
X104100000Y95450000D03*
X102000000Y95450000D03*
%TD*%
%TO.C,D3*%
X114100000Y95450000D03*
X112000000Y95450000D03*
%TD*%
%TO.C,D2*%
X124100000Y95650000D03*
X122000000Y95650000D03*
%TD*%
%TO.C,D1*%
X134100000Y95650000D03*
X132000000Y95650000D03*
%TD*%
D19*
%TO.C,R14*%
X31050000Y61350000D03*
X32070000Y61350000D03*
%TD*%
D20*
%TO.C,C48*%
X21450000Y112600000D03*
X21450000Y111640000D03*
%TD*%
%TO.C,C25*%
X58080000Y78250000D03*
X58080000Y77290000D03*
%TD*%
D21*
%TO.C,C59*%
X55600000Y59300000D03*
X55600000Y61200000D03*
%TD*%
D22*
%TO.C,R12*%
X94100000Y98420000D03*
X94100000Y97400000D03*
%TD*%
D20*
%TO.C,C23*%
X61080000Y78250000D03*
X61080000Y77290000D03*
%TD*%
%TO.C,C27*%
X101400000Y112600000D03*
X101400000Y111640000D03*
%TD*%
D22*
%TO.C,R21*%
X44100000Y98420000D03*
X44100000Y97400000D03*
%TD*%
D23*
%TO.C,C57*%
X1950000Y110610000D03*
X1950000Y109650000D03*
%TD*%
D22*
%TO.C,R20*%
X54100000Y98420000D03*
X54100000Y97400000D03*
%TD*%
D20*
%TO.C,C45*%
X51550000Y112600000D03*
X51550000Y111640000D03*
%TD*%
D10*
%TO.C,R6*%
X30900000Y59500000D03*
X32550000Y59500000D03*
%TD*%
D24*
%TO.C,C8*%
X63130000Y55650000D03*
X62170000Y55650000D03*
%TD*%
D20*
%TO.C,C55*%
X11550000Y112600000D03*
X11550000Y111640000D03*
%TD*%
%TO.C,C22*%
X62580000Y77290000D03*
X62580000Y78250000D03*
%TD*%
%TO.C,C21*%
X64480000Y77310000D03*
X64480000Y78270000D03*
%TD*%
D22*
%TO.C,R10*%
X114100000Y98420000D03*
X114100000Y97400000D03*
%TD*%
D20*
%TO.C,C20*%
X65980000Y77320000D03*
X65980000Y78280000D03*
%TD*%
%TO.C,C33*%
X81600000Y112600000D03*
X81600000Y111640000D03*
%TD*%
D25*
%TO.C,R5*%
X85300000Y48580000D03*
X85300000Y49600000D03*
%TD*%
D24*
%TO.C,C38*%
X92550000Y97400000D03*
X91590000Y97400000D03*
%TD*%
D22*
%TO.C,R25*%
X9000000Y98420000D03*
X9000000Y97400000D03*
%TD*%
%TO.C,R2*%
X85300000Y59510000D03*
X85300000Y58490000D03*
%TD*%
D20*
%TO.C,C16*%
X71980000Y77310000D03*
X71980000Y78270000D03*
%TD*%
%TO.C,C46*%
X41500000Y112600000D03*
X41500000Y111640000D03*
%TD*%
D24*
%TO.C,C51*%
X52560000Y97400000D03*
X51600000Y97400000D03*
%TD*%
D26*
%TO.C,FB1*%
X49925000Y66300000D03*
X51500000Y66300000D03*
%TD*%
D20*
%TO.C,C15*%
X73250000Y74840000D03*
X73250000Y75800000D03*
%TD*%
D23*
%TO.C,C58*%
X7550000Y97400000D03*
X7550000Y98360000D03*
%TD*%
D27*
%TO.C,C60*%
X63150000Y53650000D03*
X61250000Y53650000D03*
%TD*%
D20*
%TO.C,C41*%
X33900000Y61350000D03*
X33900000Y60390000D03*
%TD*%
D28*
%TO.C,Q1*%
X26550000Y56100000D03*
X28550000Y57050000D03*
X28550000Y55150000D03*
%TD*%
D20*
%TO.C,C43*%
X71450000Y112600000D03*
X71450000Y111640000D03*
%TD*%
D22*
%TO.C,R22*%
X34100000Y98420000D03*
X34100000Y97400000D03*
%TD*%
D20*
%TO.C,C9*%
X55600000Y65250000D03*
X55600000Y64290000D03*
%TD*%
D24*
%TO.C,C56*%
X12650000Y97400000D03*
X11690000Y97400000D03*
%TD*%
D20*
%TO.C,C40*%
X54250000Y25400000D03*
X54250000Y24440000D03*
%TD*%
D29*
%TO.C,C11*%
X32340000Y51600000D03*
X33300000Y51600000D03*
%TD*%
D20*
%TO.C,C44*%
X61450000Y112600000D03*
X61450000Y111640000D03*
%TD*%
D30*
%TO.C,C4*%
X53200000Y66300000D03*
X53200000Y67850000D03*
%TD*%
D24*
%TO.C,C54*%
X22600000Y97400000D03*
X21640000Y97400000D03*
%TD*%
%TO.C,C37*%
X102500000Y97400000D03*
X101540000Y97400000D03*
%TD*%
D22*
%TO.C,R13*%
X84100000Y98420000D03*
X84100000Y97400000D03*
%TD*%
%TO.C,R1*%
X85300000Y54420000D03*
X85300000Y53400000D03*
%TD*%
D24*
%TO.C,C52*%
X42400000Y97400000D03*
X41440000Y97400000D03*
%TD*%
D10*
%TO.C,R15*%
X52600000Y32500000D03*
X54250000Y32500000D03*
%TD*%
D20*
%TO.C,C47*%
X31450000Y112600000D03*
X31450000Y111640000D03*
%TD*%
D22*
%TO.C,R9*%
X124100000Y98420000D03*
X124100000Y97400000D03*
%TD*%
D25*
%TO.C,R17*%
X54250000Y29690000D03*
X54250000Y30710000D03*
%TD*%
D23*
%TO.C,C6*%
X56100000Y69650000D03*
X56100000Y70610000D03*
%TD*%
D21*
%TO.C,C3*%
X71700000Y69100000D03*
X71700000Y71000000D03*
%TD*%
D22*
%TO.C,R19*%
X64100000Y98420000D03*
X64100000Y97400000D03*
%TD*%
D31*
%TO.C,U2*%
X31025000Y55150000D03*
X31025000Y54200000D03*
X31025000Y53250000D03*
X33300000Y53250000D03*
X33300000Y55150000D03*
%TD*%
D20*
%TO.C,C42*%
X55750000Y30660000D03*
X55750000Y29700000D03*
%TD*%
%TO.C,C18*%
X68980000Y77310000D03*
X68980000Y78270000D03*
%TD*%
D23*
%TO.C,C7*%
X55750000Y66300000D03*
X55750000Y67260000D03*
%TD*%
D24*
%TO.C,C34*%
X132650000Y97400000D03*
X131690000Y97400000D03*
%TD*%
%TO.C,C39*%
X82650000Y97400000D03*
X81690000Y97400000D03*
%TD*%
%TO.C,C53*%
X32550000Y97400000D03*
X31590000Y97400000D03*
%TD*%
D26*
%TO.C,FB2*%
X51425000Y69450000D03*
X53000000Y69450000D03*
%TD*%
D20*
%TO.C,C14*%
X73250000Y72070000D03*
X73250000Y73030000D03*
%TD*%
D32*
%TO.C,R4*%
X67820000Y58150000D03*
X66800000Y58150000D03*
%TD*%
D20*
%TO.C,C17*%
X70480000Y77310000D03*
X70480000Y78270000D03*
%TD*%
%TO.C,C29*%
X56580000Y78250000D03*
X56580000Y77290000D03*
%TD*%
D30*
%TO.C,C5*%
X54550000Y69450000D03*
X54550000Y71000000D03*
%TD*%
D24*
%TO.C,C35*%
X122650000Y97400000D03*
X121690000Y97400000D03*
%TD*%
D20*
%TO.C,C2*%
X71250000Y65100000D03*
X71250000Y64140000D03*
%TD*%
D25*
%TO.C,R3*%
X85300000Y46030000D03*
X85300000Y47050000D03*
%TD*%
D20*
%TO.C,C26*%
X111550000Y112600000D03*
X111550000Y111640000D03*
%TD*%
D22*
%TO.C,R18*%
X74100000Y98420000D03*
X74100000Y97400000D03*
%TD*%
%TO.C,R23*%
X24100000Y98420000D03*
X24100000Y97400000D03*
%TD*%
%TO.C,R8*%
X134100000Y98420000D03*
X134100000Y97400000D03*
%TD*%
D20*
%TO.C,C31*%
X53580000Y78270000D03*
X53580000Y77310000D03*
%TD*%
%TO.C,C32*%
X52080000Y78270000D03*
X52080000Y77310000D03*
%TD*%
D24*
%TO.C,C50*%
X62500000Y97400000D03*
X61540000Y97400000D03*
%TD*%
D32*
%TO.C,R7*%
X33300000Y50350000D03*
X32280000Y50350000D03*
%TD*%
D24*
%TO.C,C49*%
X72650000Y97400000D03*
X71690000Y97400000D03*
%TD*%
D22*
%TO.C,R24*%
X14100000Y98420000D03*
X14100000Y97400000D03*
%TD*%
%TO.C,R11*%
X104100000Y98420000D03*
X104100000Y97400000D03*
%TD*%
D20*
%TO.C,C12*%
X131550000Y112600000D03*
X131550000Y111640000D03*
%TD*%
%TO.C,C19*%
X67480000Y77310000D03*
X67480000Y78270000D03*
%TD*%
D24*
%TO.C,C1*%
X62580000Y57450000D03*
X61620000Y57450000D03*
%TD*%
D20*
%TO.C,C30*%
X55080000Y78250000D03*
X55080000Y77290000D03*
%TD*%
%TO.C,C13*%
X121650000Y112600000D03*
X121650000Y111640000D03*
%TD*%
%TO.C,C28*%
X91500000Y112600000D03*
X91500000Y111640000D03*
%TD*%
D24*
%TO.C,C36*%
X112700000Y97400000D03*
X111740000Y97400000D03*
%TD*%
%TO.C,C10*%
X33300000Y56750000D03*
X32340000Y56750000D03*
%TD*%
D20*
%TO.C,C24*%
X59580000Y78250000D03*
X59580000Y77290000D03*
%TD*%
D33*
%TO.C,U1*%
X57887500Y62100000D03*
X57887500Y62600000D03*
X57887500Y63100000D03*
X57887500Y63600000D03*
X57887500Y64100000D03*
X57887500Y64600000D03*
X57887500Y65100000D03*
X57887500Y65600000D03*
X57887500Y66100000D03*
X57887500Y66600000D03*
X57887500Y67100000D03*
X57887500Y67600000D03*
X57887500Y68100000D03*
X57887500Y68600000D03*
X57887500Y69100000D03*
X57887500Y69600000D03*
D34*
X59800000Y71512500D03*
X60300000Y71512500D03*
X60800000Y71512500D03*
X61300000Y71512500D03*
X61800000Y71512500D03*
X62300000Y71512500D03*
X62800000Y71512500D03*
X63300000Y71512500D03*
X63800000Y71512500D03*
X64300000Y71512500D03*
X64800000Y71512500D03*
X65300000Y71512500D03*
X65800000Y71512500D03*
X66300000Y71512500D03*
X66800000Y71512500D03*
X67300000Y71512500D03*
D33*
X69212500Y69600000D03*
X69212500Y69100000D03*
X69212500Y68600000D03*
X69212500Y68100000D03*
X69212500Y67600000D03*
X69212500Y67100000D03*
X69212500Y66600000D03*
X69212500Y66100000D03*
X69212500Y65600000D03*
X69212500Y65100000D03*
X69212500Y64600000D03*
X69212500Y64100000D03*
X69212500Y63600000D03*
X69212500Y63100000D03*
X69212500Y62600000D03*
X69212500Y62100000D03*
D34*
X67300000Y60187500D03*
X66800000Y60187500D03*
X66300000Y60187500D03*
X65800000Y60187500D03*
X65300000Y60187500D03*
X64800000Y60187500D03*
X64300000Y60187500D03*
X63800000Y60187500D03*
X63300000Y60187500D03*
X62800000Y60187500D03*
X62300000Y60187500D03*
X61800000Y60187500D03*
X61300000Y60187500D03*
X60800000Y60187500D03*
X60300000Y60187500D03*
X59800000Y60187500D03*
D35*
X66150000Y68450000D03*
X64850000Y68450000D03*
X63550000Y68450000D03*
X62250000Y68450000D03*
X60950000Y68450000D03*
X66150000Y67150000D03*
X64850000Y67150000D03*
X63550000Y67150000D03*
X62250000Y67150000D03*
X60950000Y67150000D03*
X66150000Y65850000D03*
X64850000Y65850000D03*
X63550000Y65850000D03*
X62250000Y65850000D03*
X60950000Y65850000D03*
X66150000Y64550000D03*
X64850000Y64550000D03*
X63550000Y64550000D03*
X62250000Y64550000D03*
X60950000Y64550000D03*
X66150000Y63250000D03*
X64850000Y63250000D03*
X63550000Y63250000D03*
X62250000Y63250000D03*
X60950000Y63250000D03*
%TD*%
M02*
