%TF.GenerationSoftware,KiCad,Pcbnew,7.0.1*%
%TF.CreationDate,2023-09-05T22:58:43-07:00*%
%TF.ProjectId,Power_Meter_RPi_Hat_HW,506f7765-725f-44d6-9574-65725f525069,rev?*%
%TF.SameCoordinates,PX686d660PY8f0d180*%
%TF.FileFunction,Soldermask,Bot*%
%TF.FilePolarity,Negative*%
%FSLAX46Y46*%
G04 Gerber Fmt 4.6, Leading zero omitted, Abs format (unit mm)*
G04 Created by KiCad (PCBNEW 7.0.1) date 2023-09-05 22:58:43*
%MOMM*%
%LPD*%
G01*
G04 APERTURE LIST*
G04 Aperture macros list*
%AMRoundRect*
0 Rectangle with rounded corners*
0 $1 Rounding radius*
0 $2 $3 $4 $5 $6 $7 $8 $9 X,Y pos of 4 corners*
0 Add a 4 corners polygon primitive as box body*
4,1,4,$2,$3,$4,$5,$6,$7,$8,$9,$2,$3,0*
0 Add four circle primitives for the rounded corners*
1,1,$1+$1,$2,$3*
1,1,$1+$1,$4,$5*
1,1,$1+$1,$6,$7*
1,1,$1+$1,$8,$9*
0 Add four rect primitives between the rounded corners*
20,1,$1+$1,$2,$3,$4,$5,0*
20,1,$1+$1,$4,$5,$6,$7,0*
20,1,$1+$1,$6,$7,$8,$9,0*
20,1,$1+$1,$8,$9,$2,$3,0*%
G04 Aperture macros list end*
%ADD10C,0.150000*%
%ADD11C,1.600000*%
%ADD12C,2.300000*%
%ADD13C,2.850000*%
%ADD14O,3.600000X2.080000*%
%ADD15RoundRect,0.249999X-1.550001X0.790001X-1.550001X-0.790001X1.550001X-0.790001X1.550001X0.790001X0*%
%ADD16RoundRect,0.250001X-1.549999X0.799999X-1.549999X-0.799999X1.549999X-0.799999X1.549999X0.799999X0*%
%ADD17O,3.600000X2.100000*%
%ADD18C,2.700000*%
%ADD19R,1.700000X1.700000*%
%ADD20O,1.700000X1.700000*%
%ADD21R,3.000000X3.000000*%
%ADD22C,3.000000*%
G04 APERTURE END LIST*
D10*
X67200000Y62200000D02*
X59900000Y62200000D01*
X59900000Y69500000D01*
X67200000Y69500000D01*
X67200000Y62200000D01*
G36*
X67200000Y62200000D02*
G01*
X59900000Y62200000D01*
X59900000Y69500000D01*
X67200000Y69500000D01*
X67200000Y62200000D01*
G37*
D11*
%TO.C,J17*%
X6500000Y111500000D03*
X6500000Y104500000D03*
D12*
X8900000Y110700000D03*
X4100000Y112600000D03*
D13*
X4100000Y103300000D03*
%TD*%
D11*
%TO.C,J16*%
X16500000Y111500000D03*
X16500000Y104500000D03*
D12*
X18900000Y110700000D03*
X14100000Y112600000D03*
D13*
X14100000Y103300000D03*
%TD*%
D11*
%TO.C,J14*%
X26500000Y111500000D03*
X26500000Y104500000D03*
D12*
X28900000Y110700000D03*
X24100000Y112600000D03*
D13*
X24100000Y103300000D03*
%TD*%
D11*
%TO.C,J13*%
X36500000Y111500000D03*
X36500000Y104500000D03*
D12*
X38900000Y110700000D03*
X34100000Y112600000D03*
D13*
X34100000Y103300000D03*
%TD*%
D11*
%TO.C,J12*%
X46500000Y111500000D03*
X46500000Y104500000D03*
D12*
X48900000Y110700000D03*
X44100000Y112600000D03*
D13*
X44100000Y103300000D03*
%TD*%
D11*
%TO.C,J11*%
X56500000Y111500000D03*
X56500000Y104500000D03*
D12*
X58900000Y110700000D03*
X54100000Y112600000D03*
D13*
X54100000Y103300000D03*
%TD*%
D11*
%TO.C,J10*%
X66500000Y111500000D03*
X66500000Y104500000D03*
D12*
X68900000Y110700000D03*
X64100000Y112600000D03*
D13*
X64100000Y103300000D03*
%TD*%
D11*
%TO.C,J9*%
X76500000Y111500000D03*
X76500000Y104500000D03*
D12*
X78900000Y110700000D03*
X74100000Y112600000D03*
D13*
X74100000Y103300000D03*
%TD*%
D11*
%TO.C,J8*%
X86500000Y111500000D03*
X86500000Y104500000D03*
D12*
X88900000Y110700000D03*
X84100000Y112600000D03*
D13*
X84100000Y103300000D03*
%TD*%
D11*
%TO.C,J7*%
X96500000Y111500000D03*
X96500000Y104500000D03*
D12*
X98900000Y110700000D03*
X94100000Y112600000D03*
D13*
X94100000Y103300000D03*
%TD*%
D11*
%TO.C,J6*%
X106500000Y111500000D03*
X106500000Y104500000D03*
D12*
X108900000Y110700000D03*
X104100000Y112600000D03*
D13*
X104100000Y103300000D03*
%TD*%
D11*
%TO.C,J5*%
X116500000Y111500000D03*
X116500000Y104500000D03*
D12*
X118900000Y110700000D03*
X114100000Y112600000D03*
D13*
X114100000Y103300000D03*
%TD*%
D11*
%TO.C,J4*%
X126500000Y111500000D03*
X126500000Y104500000D03*
D12*
X128900000Y110700000D03*
X124100000Y112600000D03*
D13*
X124100000Y103300000D03*
%TD*%
D11*
%TO.C,J3*%
X136500000Y111500000D03*
X136500000Y104500000D03*
D12*
X138900000Y110700000D03*
X134100000Y112600000D03*
D13*
X134100000Y103300000D03*
%TD*%
D14*
%TO.C,J18*%
X4777500Y51960000D03*
D15*
X4777500Y57040000D03*
%TD*%
D16*
%TO.C,J2*%
X4777500Y19810000D03*
D17*
X4777500Y12190000D03*
%TD*%
D16*
%TO.C,J1*%
X4777500Y37500000D03*
D17*
X4777500Y29880000D03*
%TD*%
D18*
%TO.C,H4*%
X139500000Y80000000D03*
%TD*%
%TO.C,H8*%
X3000000Y3000000D03*
%TD*%
%TO.C,H1*%
X90500000Y80000000D03*
%TD*%
%TO.C,H2*%
X90500000Y22000000D03*
%TD*%
%TO.C,H7*%
X82500000Y3000000D03*
%TD*%
D19*
%TO.C,J15*%
X91790000Y75000000D03*
D20*
X89250000Y75000000D03*
X91790000Y72460000D03*
X89250000Y72460000D03*
X91790000Y69920000D03*
X89250000Y69920000D03*
X91790000Y67380000D03*
X89250000Y67380000D03*
X91790000Y64840000D03*
X89250000Y64840000D03*
X91790000Y62300000D03*
X89250000Y62300000D03*
X91790000Y59760000D03*
X89250000Y59760000D03*
X91790000Y57220000D03*
X89250000Y57220000D03*
X91790000Y54680000D03*
X89250000Y54680000D03*
X91790000Y52140000D03*
X89250000Y52140000D03*
X91790000Y49600000D03*
X89250000Y49600000D03*
X91790000Y47060000D03*
X89250000Y47060000D03*
X91790000Y44520000D03*
X89250000Y44520000D03*
X91790000Y41980000D03*
X89250000Y41980000D03*
X91790000Y39440000D03*
X89250000Y39440000D03*
X91790000Y36900000D03*
X89250000Y36900000D03*
X91790000Y34360000D03*
X89250000Y34360000D03*
X91790000Y31820000D03*
X89250000Y31820000D03*
X91790000Y29280000D03*
X89250000Y29280000D03*
X91790000Y26740000D03*
X89250000Y26740000D03*
%TD*%
D18*
%TO.C,H5*%
X3000000Y95000000D03*
%TD*%
%TO.C,H6*%
X140000000Y95000000D03*
%TD*%
D21*
%TO.C,T1*%
X14200000Y32500000D03*
D22*
X14200000Y26150000D03*
X14200000Y19800000D03*
X14200000Y13450000D03*
X44680000Y32500000D03*
X44680000Y26150000D03*
X44680000Y19800000D03*
X44680000Y13450000D03*
%TD*%
D18*
%TO.C,H3*%
X139500000Y22000000D03*
%TD*%
M02*
